<svg xmlns="http://www.w3.org/2000/svg" viewBox="0 0 600 600" width="600" height="600">
  <defs>
    <radialGradient id="bgGrad" cx="50%" cy="40%" r="60%">
      <stop offset="0%" stop-color="#1c1714"/>
      <stop offset="60%" stop-color="#0a0807"/>
      <stop offset="100%" stop-color="#000"/>
    </radialGradient>
    <linearGradient id="goldShine" x1="0%" y1="0%" x2="100%" y2="100%">
      <stop offset="0%" stop-color="#F5D67A"/>
      <stop offset="35%" stop-color="#E5C679"/>
      <stop offset="50%" stop-color="#FFE9A8"/>
      <stop offset="65%" stop-color="#D4AF37"/>
      <stop offset="100%" stop-color="#8B6B1E"/>
    </linearGradient>
    <linearGradient id="silverShine" x1="0%" y1="0%" x2="100%" y2="100%">
      <stop offset="0%" stop-color="#FFFFFF"/>
      <stop offset="40%" stop-color="#E8E8EA"/>
      <stop offset="60%" stop-color="#B0B0B5"/>
      <stop offset="100%" stop-color="#6C6C70"/>
    </linearGradient>
    <linearGradient id="ringGlow" x1="0%" y1="0%" x2="100%" y2="100%">
      <stop offset="0%" stop-color="#F5D67A" stop-opacity="0.9"/>
      <stop offset="50%" stop-color="#D4AF37" stop-opacity="0.5"/>
      <stop offset="100%" stop-color="#8B6B1E" stop-opacity="0.2"/>
    </linearGradient>
    <filter id="softGlow" x="-20%" y="-20%" width="140%" height="140%">
      <feGaussianBlur stdDeviation="3" result="blur"/>
      <feMerge>
        <feMergeNode in="blur"/>
        <feMergeNode in="SourceGraphic"/>
      </feMerge>
    </filter>
  </defs>

  <!-- Black background square (subtle) -->
  <rect width="600" height="600" fill="#000"/>

  <!-- Outer ring with gradient glow -->
  <circle cx="300" cy="270" r="215" fill="url(#bgGrad)" stroke="url(#ringGlow)" stroke-width="2"/>
  <!-- Bright crescent on top-right of circle -->
  <path d="M 300 55 A 215 215 0 0 1 515 270" fill="none" stroke="#F5D67A" stroke-width="2.5" stroke-linecap="round" opacity="0.7"/>

  <!-- Apple logo above iE -->
  <g transform="translate(283, 110) scale(0.6)" fill="url(#silverShine)" filter="url(#softGlow)">
    <path d="M28.5 16.3c0-3.2 2.6-4.7 2.7-4.8-1.5-2.2-3.8-2.5-4.6-2.5-2-0.2-3.8 1.1-4.9 1.1-1 0-2.6-1.1-4.3-1-2.2 0-4.2 1.3-5.4 3.3-2.3 4-0.6 9.9 1.7 13.1 1.1 1.6 2.4 3.4 4.1 3.3 1.7-0.1 2.2-1.1 4.2-1.1 1.9 0 2.4 1.1 4.2 1 1.7 0 2.8-1.6 3.9-3.2 1.2-1.8 1.7-3.6 1.7-3.7-0.1 0-3.3-1.3-3.3-5zm-3.4-9.4c0.9-1.1 1.5-2.7 1.4-4.2-1.3 0.1-3 0.9-3.9 2-0.9 1-1.6 2.5-1.4 4.1 1.5 0.1 3-0.7 3.9-1.9z"/>
  </g>

  <!-- "iE" monogram -->
  <g transform="translate(300, 300)" filter="url(#softGlow)">
    <!-- Sparkle dot on i -->
    <circle cx="-58" cy="-50" r="6" fill="#FFFFFF" opacity="0.9"/>
    <circle cx="-58" cy="-50" r="3" fill="#FFE9A8"/>
    <!-- i lowercase (silver/white) -->
    <text x="-58" y="50" font-family="Georgia, serif" font-style="italic" font-size="170" font-weight="500" text-anchor="middle" fill="url(#silverShine)">i</text>
    <!-- E uppercase (gold) -->
    <text x="50" y="50" font-family="Georgia, serif" font-style="italic" font-size="200" font-weight="600" text-anchor="middle" fill="url(#goldShine)">E</text>
  </g>

  <!-- iPhone Elite text -->
  <g transform="translate(300, 520)">
    <text font-family="Helvetica, Arial, sans-serif" font-size="44" font-weight="300" text-anchor="middle" fill="url(#silverShine)" letter-spacing="-1">iPhone <tspan font-weight="600" fill="url(#goldShine)">Elite</tspan><tspan font-size="22" font-weight="400" fill="url(#goldShine)" baseline-shift="super">.cl</tspan></text>
  </g>

  <!-- Divider line -->
  <line x1="120" y1="555" x2="480" y2="555" stroke="url(#ringGlow)" stroke-width="0.8" opacity="0.4"/>

  <!-- Tagline -->
  <g transform="translate(300, 580)">
    <text font-family="Helvetica, Arial, sans-serif" font-size="14" font-weight="400" text-anchor="middle" fill="#B6A578" letter-spacing="4">ORIGINAL  |  GARANTÍA  |  CONFIANZA</text>
  </g>
</svg>
